<svg width="61" height="88" viewBox="0 0 61 88" fill="none" xmlns="http://www.w3.org/2000/svg">
<path d="M45.9385 62.3667L46.2236 62.6245C52.1481 67.9736 56.622 76.165 58.7627 85.7827L59.0332 87.0005H1.24707L1.51758 85.7827C3.65831 76.1649 8.13383 67.9735 14.0566 62.6245L14.3418 62.3667H45.9385Z" fill="black" stroke="white" stroke-width="2"/>
<path d="M39.8059 28.3408L39.1301 29.7686C37.4333 33.3513 36.4827 37.3648 36.4827 41.6055C36.4827 49.1776 39.5142 56.029 44.4182 60.9932L46.0999 62.6963H14.2776L15.9592 60.9932C20.862 56.0289 23.8947 49.1774 23.8948 41.6055C23.8948 37.3648 22.9451 33.3513 21.2483 29.7686L20.5715 28.3408H39.8059Z" fill="black" stroke="white" stroke-width="2"/>
<path d="M30.1892 1C32.2938 1.0002 33.9988 2.70595 33.9988 4.81055C33.9986 6.9138 32.2933 8.61894 30.1892 8.61914C28.085 8.61914 26.3789 6.91393 26.3787 4.81055C26.3787 2.70583 28.0845 1 30.1892 1Z" fill="black" stroke="white" stroke-width="2"/>
<path d="M30.4685 8.37769C36.2442 10.9731 39.225 13.9202 40.7556 16.3093C41.5187 17.5004 41.911 18.5377 42.1121 19.2986C42.2124 19.6783 42.2655 19.9878 42.2927 20.2117C42.3063 20.3235 42.3132 20.414 42.3171 20.4812C42.3191 20.5148 42.3204 20.5425 42.321 20.5642C42.3214 20.5751 42.3209 20.5847 42.321 20.5925C42.3211 20.5963 42.322 20.6002 42.322 20.6033V20.6091C42.322 20.6101 42.3217 20.6111 41.322 20.6111H42.322C42.322 23.5149 41.321 26.1864 39.6462 28.2927L39.3464 28.6697H20.7703L20.4695 28.2927C18.8994 26.3181 17.9225 23.8468 17.8064 21.1531L17.7947 20.6111C17.7947 20.4359 17.8272 18.6403 19.3591 16.239C20.8917 13.8368 23.8771 10.9032 29.657 8.37378L30.0632 8.19604L30.4685 8.37769Z" fill="black" stroke="white" stroke-width="2"/>
</svg>
