<svg width="61" height="88" viewBox="0 0 61 88" fill="none" xmlns="http://www.w3.org/2000/svg">
<path d="M45.9375 62.3669L46.2236 62.6248C52.148 67.9737 56.621 76.1649 58.7617 85.783L59.0332 86.9998H1.24707L1.51758 85.783C3.6583 76.1647 8.13387 67.9736 14.0566 62.6248L14.3418 62.3669H45.9375Z" fill="white" stroke="black" stroke-width="2"/>
<path d="M39.8064 28.3413L39.1296 29.769C37.4328 33.3509 36.4832 37.3644 36.4832 41.605C36.4832 49.1767 39.5147 56.0293 44.4187 60.9937L46.1003 62.6958H14.2791L15.9597 60.9937C20.8624 56.0291 23.8952 49.1766 23.8953 41.605C23.8953 37.3644 22.9456 33.3509 21.2488 29.769L20.572 28.3413H39.8064Z" fill="white" stroke="black" stroke-width="2"/>
<path d="M30.1897 1C32.2941 1.00021 33.9992 2.70559 33.9993 4.80957C33.9993 6.91342 32.2942 8.61893 30.1897 8.61914C28.085 8.61914 26.3792 6.91355 26.3792 4.80957C26.3792 2.70546 28.0851 1 30.1897 1Z" fill="white" stroke="black" stroke-width="2"/>
<path d="M30.467 8.37793C36.2428 10.9732 39.2244 13.9195 40.7551 16.3086C41.5181 17.4995 41.9105 18.537 42.1116 19.2979C42.2119 19.6777 42.2641 19.988 42.2913 20.2119C42.3048 20.3237 42.3127 20.4143 42.3167 20.4814C42.3186 20.5149 42.3199 20.5428 42.3206 20.5645V20.6094C42.315 20.6102 42.243 20.6113 41.3206 20.6113H42.3206C42.3205 23.5142 41.3204 26.1855 39.6458 28.292L39.3459 28.6699H20.7698L20.469 28.292C18.899 26.3171 17.9219 23.8455 17.8059 21.1523L17.7942 20.6113C17.7942 20.4362 17.827 18.6404 19.3586 16.2393C20.8912 13.8369 23.8766 10.9029 29.6565 8.37402L30.0627 8.19629L30.467 8.37793Z" fill="white" stroke="black" stroke-width="2"/>
</svg>
