<svg width="59" height="93" viewBox="0 0 59 93" fill="none" xmlns="http://www.w3.org/2000/svg">
<path d="M44.856 67.9446L45.1411 68.1995C50.9204 73.3656 55.2862 81.2774 57.3745 90.5667L57.6479 91.7864H1.24951L1.52393 90.5667C3.61217 81.2773 7.97792 73.3655 13.7573 68.1995L14.0415 67.9446H44.856Z" fill="black" stroke="white" stroke-width="2"/>
<path d="M30.1157 7.45166L34.5972 12.1821L35.2759 12.8989L34.5679 13.5864L30.0864 17.9438L29.3794 18.6313L24.2007 13.4526L23.5034 12.7544L24.1909 12.0483L28.6724 7.44189L29.3989 6.69482L30.1157 7.45166Z" fill="black" stroke="white" stroke-width="2"/>
<path d="M30.0742 2.05762L32.1914 4.0498L32.9414 4.75586L32.2129 5.48535L30.0967 7.60156L29.3672 8.33008L28.6611 7.58008L26.6689 5.46289L26.0039 4.75684L26.6904 4.07129L28.6826 2.0791L29.3682 1.39258L30.0742 2.05762Z" fill="black" stroke="white" stroke-width="2"/>
<path d="M39.9751 19.395L38.3257 17.9878L33.2212 13.6304L32.3667 12.9009L33.1909 12.1362L38.2944 7.40576L39.9751 5.84912V19.395Z" fill="black" stroke="white" stroke-width="2"/>
<path d="M20.4731 7.39697L25.5776 12.0024L26.4116 12.7554L25.5669 13.4966L20.4634 17.978L18.8032 19.436V5.89014L20.4731 7.39697Z" fill="black" stroke="white" stroke-width="2"/>
<path d="M39.9741 16.2271V25.7515H18.8032V16.2271H39.9741Z" fill="black" stroke="white" stroke-width="2"/>
<path d="M39.4067 32.9634L38.7261 34.3931C36.9528 38.1181 35.9595 42.2927 35.9595 46.7036C35.9595 54.5776 39.1282 61.7053 44.2544 66.8706L45.9458 68.5757H12.9204L14.6118 66.8706C19.7381 61.7053 22.9077 54.5777 22.9077 46.7036C22.9077 42.2927 21.9134 38.1181 20.1401 34.3931L19.4595 32.9634H39.4067Z" fill="black" stroke="white" stroke-width="2"/>
<path d="M45.2524 25.1204L43.7329 26.7932C42.0324 28.6652 40.5625 30.7693 39.3716 33.0559L39.0913 33.594H19.7212L19.4409 33.0559C18.25 30.7692 16.7801 28.6653 15.0796 26.7932L13.5601 25.1204H45.2524Z" fill="black" stroke="white" stroke-width="2"/>
</svg>
