<svg width="48" height="83" viewBox="0 0 48 83" fill="none" xmlns="http://www.w3.org/2000/svg">
<path d="M46.6531 25.7527H25.655L42.5417 58.8953L43.282 60.3494H10.2263V22.7449C10.2263 14.2376 15.5554 6.97741 23.0544 4.11597L23.4539 3.96362L23.8406 4.14722L46.0818 14.7087L46.6531 14.9792V25.7527Z" fill="white" stroke="black" stroke-width="2"/>
<path d="M17.8892 1.32227L21.7583 3.15918L23.6636 4.06445L21.7573 4.9668C15.1009 8.1182 10.4995 14.8953 10.4995 22.7451V60.3496H5.05713V20.7002C5.05726 12.2254 9.92548 4.88938 17.0122 1.33203L17.4487 1.11328L17.8892 1.32227Z" fill="white" stroke="black" stroke-width="2"/>
<path d="M33.9697 60.0759L34.2695 60.4363C37.2555 64.0264 41.0626 66.8595 45.3857 68.6257L45.0078 70.5515H2L1.62207 68.6257C5.94526 66.8594 9.75345 64.0262 12.7393 60.4363L13.0391 60.0759H33.9697Z" fill="white" stroke="black" stroke-width="2"/>
<path d="M46.0078 70.2788V81.2261H1V70.2788H46.0078Z" fill="white" stroke="black" stroke-width="2"/>
</svg>
