<svg width="48" height="83" viewBox="0 0 48 83" fill="none" xmlns="http://www.w3.org/2000/svg">
<path d="M46.6531 25.7529H25.656L42.5417 58.8955L43.282 60.3496H10.2263V22.7451C10.2264 14.238 15.5555 6.97783 23.0544 4.11621L23.4539 3.96387L23.8406 4.14746L46.0818 14.708L46.6531 14.9795V25.7529Z" fill="black" stroke="white" stroke-width="2"/>
<path d="M17.8896 1.32202L21.7588 3.15796L23.665 4.06323L21.7578 4.96558C15.1014 8.11678 10.5001 14.8944 10.5 22.7449V60.3494H5.05762V20.7C5.05762 12.2253 9.9257 4.88844 17.0127 1.33179L17.4492 1.11304L17.8896 1.32202Z" fill="black" stroke="white" stroke-width="2"/>
<path d="M33.9697 60.0757L34.2695 60.436C37.2555 64.0262 41.0634 66.8602 45.3867 68.6265L45.0078 70.5513H2L1.62207 68.6265C5.94541 66.8602 9.75336 64.0261 12.7393 60.436L13.04 60.0757H33.9697Z" fill="black" stroke="white" stroke-width="2"/>
<path d="M46.0078 70.2783V81.2256H1V70.2783H46.0078Z" fill="black" stroke="white" stroke-width="2"/>
</svg>
