<svg width="61" height="84" viewBox="0 0 61 84" fill="none" xmlns="http://www.w3.org/2000/svg">
<path d="M29.8384 1C36.0543 1.00023 41.0942 6.04088 41.0942 12.2568C41.094 18.4726 36.0541 23.5125 29.8384 23.5127C23.62 23.5127 18.5818 18.4726 18.5815 12.2568C18.5815 6.04088 23.6199 1 29.8384 1Z" fill="black" stroke="white" stroke-width="2"/>
<path d="M41.0332 65.7292L41.3135 66.2703C44.2536 71.9598 48.8773 77.0491 54.7529 81.1824L57.3369 82.9998H3.08008L5.57129 81.1902C11.2998 77.0313 15.7848 71.947 18.6113 66.283L18.8877 65.7292H41.0332Z" fill="black" stroke="white" stroke-width="2"/>
<path d="M44.9736 24.02L43.9658 25.5659C39.6629 32.164 37.2178 39.7485 37.2178 47.812C37.2178 53.4419 38.4083 58.8349 40.5908 63.8208L41.2041 65.2222H18.6973L19.3105 63.8208C21.493 58.8351 22.6816 53.4421 22.6816 47.812C22.6816 39.7483 20.2384 32.1639 15.9355 25.5659L14.9277 24.02H44.9736Z" fill="black" stroke="white" stroke-width="2"/>
</svg>
