<svg width="61" height="84" viewBox="0 0 61 84" fill="none" xmlns="http://www.w3.org/2000/svg">
<path d="M29.8374 1C36.0533 1.00023 41.0933 6.04015 41.0933 12.2568C41.093 18.4733 36.0531 23.5125 29.8374 23.5127C23.6191 23.5127 18.5808 18.4733 18.5806 12.2568C18.5806 6.04015 23.6189 1 29.8374 1Z" fill="white" stroke="black" stroke-width="2"/>
<path d="M41.0322 65.7292L41.3125 66.2703C44.2526 71.959 48.8763 77.0491 54.752 81.1824L57.3359 82.9998H3.0791L5.57031 81.1912C11.2989 77.0314 15.7838 71.9461 18.6104 66.283L18.8867 65.7292H41.0322Z" fill="white" stroke="black" stroke-width="2"/>
<path d="M44.9722 24.02L43.9644 25.5659C39.6614 32.1645 37.2163 39.7485 37.2163 47.812C37.2163 53.4416 38.4067 58.835 40.5894 63.8218L41.2026 65.2222H18.6958L19.3091 63.8218C21.4917 58.8352 22.6802 53.4418 22.6802 47.812C22.6802 39.7483 20.2369 32.1643 15.9341 25.5659L14.9263 24.02H44.9722Z" fill="white" stroke="black" stroke-width="2"/>
</svg>
