<svg width="55" height="92" viewBox="0 0 55 92" fill="none" xmlns="http://www.w3.org/2000/svg">
<path d="M27.271 1C29.6526 1 31.5834 2.93067 31.5835 5.3125C31.5835 7.69438 29.6527 9.625 27.271 9.625C24.8892 9.62494 22.9585 7.69432 22.9585 5.3125C22.9586 2.93073 24.8892 1.00006 27.271 1Z" fill="white" stroke="black" stroke-width="2"/>
<path d="M27.2886 9.20947C31.7355 9.20953 35.6777 11.5192 38.3335 15.0854L39.5229 16.6821H15.0542L16.2437 15.0854C18.8993 11.5191 22.8415 9.20947 27.2886 9.20947Z" fill="white" stroke="black" stroke-width="2"/>
<path d="M45.1387 16.2668L43.5117 17.9602C41.3973 20.1605 39.5453 22.61 38.0059 25.259L37.7168 25.7561H16.9346L16.6455 25.259C15.1061 22.61 13.2541 20.1604 11.1396 17.9602L9.5127 16.2668H45.1387Z" fill="white" stroke="black" stroke-width="2"/>
<path d="M37.8638 25.3406L37.1099 26.7996C34.3782 32.0893 32.8354 38.0937 32.8354 44.4607C32.8355 53.1672 35.7209 61.1972 40.5884 67.6501L41.7974 69.2527H12.7339L13.9419 67.6501C18.8094 61.1971 21.6957 53.1673 21.6958 44.4607C21.6958 38.0936 20.1522 32.0894 17.4204 26.7996L16.6675 25.3406H37.8638Z" fill="white" stroke="black" stroke-width="2"/>
<path d="M41.5591 68.8364L41.8442 69.0913C47.1839 73.8739 51.2132 81.1932 53.1401 89.7808L53.4136 91.0005H1.24951L1.52295 89.7808C3.44991 81.1932 7.47901 73.8739 12.8188 69.0913L13.104 68.8364H41.5591Z" fill="white" stroke="black" stroke-width="2"/>
</svg>
