<svg width="55" height="92" viewBox="0 0 55 92" fill="none" xmlns="http://www.w3.org/2000/svg">
<path d="M27.271 1C29.6527 1 31.5834 2.93119 31.5835 5.3125C31.5835 7.69386 29.6528 9.625 27.271 9.625C24.8891 9.62494 22.9585 7.6938 22.9585 5.3125C22.9586 2.93125 24.8891 1.00006 27.271 1Z" fill="black" stroke="white" stroke-width="2"/>
<path d="M27.2886 9.20947C31.7354 9.20953 35.6777 11.5186 38.3335 15.0854L39.5229 16.6821H15.0542L16.2437 15.0854C18.8994 11.5186 22.8416 9.20947 27.2886 9.20947Z" fill="black" stroke="white" stroke-width="2"/>
<path d="M45.1387 16.2668L43.5117 17.9602C41.3973 20.16 39.5453 22.6096 38.0059 25.259L37.7168 25.7561H16.9346L16.6455 25.259C15.1061 22.6096 13.254 20.16 11.1396 17.9602L9.51172 16.2668H45.1387Z" fill="black" stroke="white" stroke-width="2"/>
<path d="M37.8638 25.3406L37.1099 26.7996C34.3782 32.0893 32.8354 38.094 32.8354 44.4607C32.8355 53.1669 35.7208 61.1968 40.5884 67.6501L41.7974 69.2527H12.7339L13.9419 67.6501C18.8095 61.1967 21.6958 53.167 21.6958 44.4607C21.6958 38.0939 20.1522 32.0894 17.4204 26.7996L16.6675 25.3406H37.8638Z" fill="black" stroke="white" stroke-width="2"/>
<path d="M41.5591 68.8364L41.8442 69.0913C47.1839 73.8742 51.2132 81.1935 53.1401 89.7808L53.4136 91.0005H1.24951L1.52295 89.7808C3.44992 81.1935 7.47904 73.8742 12.8188 69.0913L13.104 68.8364H41.5591Z" fill="black" stroke="white" stroke-width="2"/>
</svg>
