<svg width="71" height="76" viewBox="0 0 71 76" fill="none" xmlns="http://www.w3.org/2000/svg">
<path d="M60.3955 1L58.7715 2.69238C55.6327 5.96218 52.881 9.60123 50.5967 13.5361L50.3076 14.0342H20.25L19.9609 13.5371C17.6744 9.60169 14.9247 5.96196 11.7842 2.69238L10.1592 1H60.3955Z" fill="black" stroke="white" stroke-width="2"/>
<path d="M50.5166 14.1909L50.0508 15.521C48.7114 19.3466 47.9834 23.4578 47.9834 27.7407C47.9834 40.6342 54.5857 51.9978 64.6152 58.6606L67.374 60.4937H3.3125L6.07129 58.6606C16.1009 51.9978 22.7031 40.6342 22.7031 27.7407C22.7031 23.4578 21.9753 19.3468 20.6377 15.521L20.1729 14.1909H50.5166Z" fill="black" stroke="white" stroke-width="2"/>
<path d="M65.0615 60.6501V74.9998H5.625V60.6501H65.0615Z" fill="black" stroke="white" stroke-width="2"/>
</svg>
