<svg width="71" height="76" viewBox="0 0 71 76" fill="none" xmlns="http://www.w3.org/2000/svg">
<path d="M60.3943 1L58.7693 2.69238C55.6306 5.96148 52.8797 9.60112 50.5955 13.5371L50.3064 14.0352H20.2488L19.9597 13.5381C17.6732 9.60158 14.9243 5.96126 11.7839 2.69238L10.157 1H60.3943Z" fill="white" stroke="black" stroke-width="2"/>
<path d="M50.5142 14.1917L50.0483 15.5217C48.709 19.3466 47.982 23.4577 47.9819 27.7395C47.9819 40.6338 54.5833 51.9968 64.6128 58.6614L67.3716 60.4944H3.31201L6.06982 58.6614C16.0994 51.9968 22.7017 40.6338 22.7017 27.7395C22.7016 23.4577 21.9738 19.3468 20.6362 15.5217L20.1714 14.1917H50.5142Z" fill="white" stroke="black" stroke-width="2"/>
<path d="M65.0601 60.6501V74.9998H5.62354V60.6501H65.0601Z" fill="white" stroke="black" stroke-width="2"/>
</svg>
